<?xml version="1.0" encoding="UTF-8" standalone="no"?>
<!-- Generator: Gravit.io --><svg xmlns="http://www.w3.org/2000/svg" xmlns:xlink="http://www.w3.org/1999/xlink"
    style="isolation:isolate" viewBox="0 0 16 11" width="16pt" height="11pt">
    <defs>
        <clipPath id="_clipPath_zxL8lEbjFa3und8q9LGA23n4Orn8GhEj">
            <rect width="16" height="11" />
        </clipPath>
    </defs>
    <g clip-path="url(#_clipPath_zxL8lEbjFa3und8q9LGA23n4Orn8GhEj)">
        <path d=" M 0 6 L 16 6 L 16 7 L 5 7 Z " fill="rgb(255,0,0)" />
        <path d=" M 0 8 L 16 8 L 16 9 L 0 9 Z " fill="rgb(0,102,0)" />
        <path d=" M 0 10 L 16 10 L 16 11 L 0 11  Z " fill="rgb(255,0,0)" />
        <path d=" M 0 10 L 5 10 L 5 11 L 0 11  Z " fill="rgb(0,102,0)" />
        <path d=" M 0 8 L 5 8 L 5 9 L 0 9 Z " fill="rgb(0,102,0)" />
        <path d=" M 0 6 L 5 6 L 5 7 L 0 7 Z " fill="rgb(0,102,0)" />
        <path d=" M 5 10 L 16 10 L 16 11 L 5 11  Z " fill="rgb(255,0,0)" />
        <path d=" M 5 8 L 16 8 L 16 9 L 5 9 Z " fill="rgb(255,0,0)" />
        <path d=" M 5 6 L 16 6 L 16 7 L 5 7 Z " fill="rgb(255,0,0)" />
        <path d=" M 7 4 L 16 4 L 16 5 L 7 5 Z " fill="rgb(255,0,0)" />
        <path d=" M 7 2 L 16 2 L 16 3 L 7 3 Z " fill="rgb(255,0,0)" />
        <path d=" M 7 0 L 16 0 L 16 1 L 7 1 Z " fill="rgb(255,0,0)" />
        <path d=" M 0 0 L 6 0 L 6 5 L 0 5 Z " fill="rgb(0,102,0)" />
    </g>
</svg>