<?xml version="1.0" encoding="UTF-8" standalone="no"?>
<!-- Generator: Gravit.io --><svg xmlns="http://www.w3.org/2000/svg" xmlns:xlink="http://www.w3.org/1999/xlink"
    style="isolation:isolate" viewBox="0 0 32 22" width="32pt" height="22pt">
    <defs>
        <clipPath id="_clipPath_j2EdvWaMEjpClE2VR7z2vYfuYk3N0iBm">
            <rect width="32" height="22" />
        </clipPath>
    </defs>
    <g clip-path="url(#_clipPath_j2EdvWaMEjpClE2VR7z2vYfuYk3N0iBm)">
        <clipPath id="_clipPath_ZadLjfDTvCTWkgWf6esA6KLdeZcVHdXW">
            <rect x="0" y="0" width="32" height="22" transform="matrix(1,0,0,1,0,0)" fill="rgb(255,255,255)" />
        </clipPath>
        <g clip-path="url(#_clipPath_ZadLjfDTvCTWkgWf6esA6KLdeZcVHdXW)">
            <g>
                <path d=" M 2 22 L 14 13 L 14 22 L 2 22 Z " fill="rgb(0,102,0)" />
                <path d=" M 0 9 L 14 9 L 14 13 L 0 13 L 0 9 Z " fill="rgb(0,102,0)" />
                <path d=" M -1 22 L 11 13 L 14 13 L 2 22 L -1 22 Z " fill="rgb(0,102,0)" />
                <path d=" M 18 9 L 30 0 L 33 0 L 21 9 L 18 9 Z " fill="rgb(255,0,0)" />
                <path d=" M -8 -1 L 8 9 L 14 9 L 0 0 L -8 -1 Z " fill="rgb(0,102,0)" />
                <path d=" M 18 13 L 30 22 L 39 22 L 25 13 L 18 13 Z " fill="rgb(255,0,0)" />
                <path d=" M 0 13 L 0 13 L 11 13 L -1 22 L 0 13 Z " fill="rgb(0,102,0)" />
                <path d=" M 0 4 L 0 4 L 8 9 L 0 9 L 0 4 Z " fill="rgb(0,102,0)" />
                <path d=" M 14 13 L 18 13 L 18 22 L 14 22 L 14 13 Z " fill="rgb(255,0,0)" />
                <path d=" M 18 13 L 30 22 L 30 22 L 18 22 L 18 13 Z " fill="rgb(255,0,0)" />
                <path d=" M 25 13 L 32 13 L 39 22 L 39 22 L 25 13 Z " fill="rgb(255,0,0)" />
                <path d=" M 21 9 L 33 0 L 32 9 L 32 9 L 21 9 Z " fill="rgb(255,0,0)" />
                <path d=" M 14 9 L 32 9 L 32 13 L 14 13 L 14 9 Z " fill="rgb(255,0,0)" />
                <path d=" M 18 0 L 32 0 L 30 0 L 18 9 L 18 0 Z " fill="rgb(255,0,0)" />
                <path d=" M 14 0 L 18 0 L 18 10 L 14 10 L 14 0 Z " fill="rgb(255,0,0)" />
                <path d=" M 0 0 L 14 0 L 14 9 L 0 0 Z " fill="rgb(0,102,0)" />
            </g>
        </g>
    </g>
</svg>