<?xml version="1.0" encoding="UTF-8" standalone="no"?><!-- Generator: Gravit.io --><svg xmlns="http://www.w3.org/2000/svg" xmlns:xlink="http://www.w3.org/1999/xlink" style="isolation:isolate" viewBox="0 0 32 22" width="32pt" height="22pt"><defs><clipPath id="_clipPath_404LpzYhN2oUez4aWwU0KllpdORt8yzy"><rect width="32" height="22"/></clipPath></defs><g clip-path="url(#_clipPath_404LpzYhN2oUez4aWwU0KllpdORt8yzy)"><clipPath id="_clipPath_5dhmjFWP8xesImOkjxwqw9CSBZ6Tys5I"><rect x="0" y="0" width="32" height="22" transform="matrix(1,0,0,1,0,0)" fill="rgb(255,255,255)"/></clipPath><g clip-path="url(#_clipPath_5dhmjFWP8xesImOkjxwqw9CSBZ6Tys5I)"><g><path d=" M 2 22 L 13 14 L 13 22 L 2 22 Z " fill="rgb(1,33,105)"/><path d=" M 0 9 L 14 9 L 14 13 L 0 13 L 0 9 Z " fill="rgb(200,16,46)"/><path d=" M -1 22 L 10 14 L 12 14 L 1 22 L -1 22 Z " fill="rgb(200,16,46)"/><path d=" M 20 8 L 31 0 L 33 0 L 22 8 L 20 8 Z " fill="rgb(200,16,46)"/><path d=" M -2 3 L 6 8 L 8 8 L 0 3 L -2 3 Z " fill="rgb(200,16,46)"/><path d=" M 24 14 L 32 19 L 34 19 L 26 14 L 24 14 Z " fill="rgb(200,16,46)"/><path d=" M 0 14 L 0 14 L 5 14 L 0 17 L 0 14 Z " fill="rgb(1,33,105)"/><path d=" M 0 5 L 0 5 L 5 8 L 0 8 L 0 5 Z " fill="rgb(1,33,105)"/><path d=" M 14 13 L 18 13 L 18 22 L 14 22 L 14 13 Z " fill="rgb(200,16,46)"/><path d=" M 19 14 L 30 22 L 30 22 L 19 22 L 19 14 Z " fill="rgb(1,33,105)"/><path d=" M 27 14 L 32 14 L 32 17 L 32 17 L 27 14 Z " fill="rgb(1,33,105)"/><path d=" M 27 8 L 32 5 L 32 8 L 32 8 L 27 8 Z " fill="rgb(1,33,105)"/><path d=" M 14 9 L 32 9 L 32 13 L 14 13 L 14 9 Z " fill="rgb(200,16,46)"/><path d=" M 19 0 L 32 0 L 30 0 L 19 8 L 19 0 Z " fill="rgb(1,33,105)"/><path d=" M 14 0 L 18 0 L 18 10 L 14 10 L 14 0 Z " fill="rgb(200,16,46)"/><path d=" M 2 0 L 13 0 L 13 8 L 2 0 Z " fill="rgb(1,33,105)"/></g></g></g></svg>