<?xml version="1.0" encoding="UTF-8" standalone="no"?>
<!-- Generator: Gravit.io -->

<svg
   style="isolation:isolate"
   viewBox="0 0 16 11"
   width="16pt"
   height="11pt"
   version="1.1"
   id="svg2131"
   sodipodi:docname="flag-2.svg"
   inkscape:version="1.1 (c68e22c387, 2021-05-23)"
   xmlns:inkscape="http://www.inkscape.org/namespaces/inkscape"
   xmlns:sodipodi="http://sodipodi.sourceforge.net/DTD/sodipodi-0.dtd"
   xmlns="http://www.w3.org/2000/svg"
   xmlns:svg="http://www.w3.org/2000/svg">
  <sodipodi:namedview
     id="namedview2133"
     pagecolor="#ffffff"
     bordercolor="#666666"
     borderopacity="1.0"
     inkscape:pageshadow="2"
     inkscape:pageopacity="0.0"
     inkscape:pagecheckerboard="0"
     inkscape:document-units="pt"
     showgrid="false"
     inkscape:zoom="59.522727"
     inkscape:cx="10.659794"
     inkscape:cy="7.3333333"
     inkscape:window-width="3840"
     inkscape:window-height="2075"
     inkscape:window-x="0"
     inkscape:window-y="0"
     inkscape:window-maximized="1"
     inkscape:current-layer="svg2131" />
  <defs
     id="defs2107">
    <clipPath
       id="_clipPath_9IX0HFBd4YuP5eAvsqSoZYm5oQ0d3NUI">
      <rect
         width="16"
         height="11"
         id="rect2104" />
    </clipPath>
  </defs>
  <g
     clip-path="url(#_clipPath_9IX0HFBd4YuP5eAvsqSoZYm5oQ0d3NUI)"
     id="g2129">
    <path
       id="back-0"
       d=" M 0 0 L 7 0 L 7 11 L 0 11 Z "
       fill="rgb(0,102,0)" />
    <path
       id="back-1"
       d=" M 7 0 L 16 0 L 16 11 L 7 11 Z "
       fill="rgb(255,0,0)" />
    <path
       id="back-2"
       d=" M 7 0 L 7 0 L 16 11 L 7 11 Z "
       fill="rgba(0,0,0,0)" />
    <path
       id="rect-green-dre"
       d=" M 0 10 L 7 10 L 7 11 L 0 11 Z "
       fill="rgb(0,102,0)" />
    <path
       id="path2113"
       d=" M 0 8 L 7 8 L 7 10 L 0 10 Z "
       fill="rgb(0,102,0)" />
    <path
       id="path2115"
       d=" M 0 6 L 7 6 L 7 8 L 0 8 Z "
       fill="rgb(0,102,0)" />
    <path
       id="rect-red-dre"
       d=" M 7 10 L 16 10 L 16 11 L 7 11 Z "
       fill="rgb(255,0,0)" />
    <path
       id="path2118"
       d=" M 7 8 L 16 8 L 16 10 L 7 10 Z "
       fill="rgb(255,0,0)" />
    <path
       id="path2120"
       d=" M 7 6 L 16 6 L 16 8 L 7 8 Z "
       fill="rgb(255,0,0)" />
    <path
       id="path2122"
       d=" M 7 4 L 16 4 L 16 6 L 7 6 Z "
       fill="rgb(255,0,0)" />
    <path
       id="path2124"
       d=" M 7 2 L 16 2 L 16 4 L 7 4 Z "
       fill="rgb(255,0,0)" />
    <path
       id="path2126"
       d=" M 7 0 L 16 0 L 16 2 L 7 2 Z "
       fill="rgb(255,0,0)" />
    <path
       id="rect-green-blue"
       d=" M 0 0 L 7 0 L 7 6 L 0 6 Z "
       fill="rgb(0,102,0)" />
  </g>
</svg>
