<?xml version="1.0" encoding="UTF-8" standalone="no"?>
<!-- Generator: Gravit.io --><svg xmlns="http://www.w3.org/2000/svg" xmlns:xlink="http://www.w3.org/1999/xlink"
    style="isolation:isolate" viewBox="0 0 16 11" width="16pt" height="11pt">
    <defs>
        <clipPath id="_clipPath_9IX0HFBd4YuP5eAvsqSoZYm5oQ0d3NUI">
            <rect width="16" height="11" />
        </clipPath>
    </defs>
    <g clip-path="url(#_clipPath_9IX0HFBd4YuP5eAvsqSoZYm5oQ0d3NUI)">
        <path d=" M 0 0 L 5 0 L 5 11 L 0 11 L 0 0 Z " fill="rgb(0,102,0)" />
        <path d=" M 5 0 L 16 0 L 16 11 L 5 11 L 5 0 Z " fill="rgb(255,0,0)" />
        <path d=" M 0 10 L 5 10 L 5 11 L 0 11 Z " fill="rgb(0,102,0)" />
        <path d=" M 0 8 L 5 8 L 5 10 L 0 10 Z " fill="rgb(0,102,0)" />
        <path d=" M 0 6 L 5 6 L 5 8 L 0 8 Z " fill="rgb(0,102,0)" />
        <path d=" M 5 10 L 16 10 L 16 11 L 5 11 Z " fill="rgb(255,0,0)" />
        <path d=" M 5 8 L 16 8 L 16 10 L 5 10 Z " fill="rgb(255,0,0)" />
        <path d=" M 5 6 L 16 6 L 16 8 L 5 8 Z " fill="rgb(255,0,0)" />
        <path d=" M 5 4 L 16 4 L 16 6 L 5 6 Z " fill="rgb(255,0,0)" />
        <path d=" M 5 2 L 16 2 L 16 4 L 5 4 Z " fill="rgb(255,0,0)" />
        <path d=" M 5 0 L 16 0 L 16 2 L 5 2 Z " fill="rgb(255,0,0)" />
        <path d=" M 0 0 L 5 0 L 5 6 L 0 6 Z " fill="rgb(0,102,0)" />
    </g>
</svg>