<?xml version="1.0" standalone="no"?>
<!DOCTYPE svg PUBLIC "-//W3C//DTD SVG 20010904//EN"
 "http://www.w3.org/TR/2001/REC-SVG-20010904/DTD/svg10.dtd">
<svg version="1.0" xmlns="http://www.w3.org/2000/svg"
 width="1500.000000pt" height="1500.000000pt" viewBox="0 0 1500.000000 1500.000000"
 preserveAspectRatio="xMidYMid meet">
<metadata>
Created by potrace 1.14, written by Peter Selinger 2001-2017
</metadata>
<g transform="translate(0.000000,1500.000000) scale(0.100000,-0.100000)"
fill="#000000" stroke="none">
<path d="M10870 11259 c-312 -24 -607 -140 -1035 -407 -115 -72 -204 -131
-215 -142 -3 -3 -43 -32 -90 -65 -47 -32 -87 -61 -90 -64 -3 -4 -25 -22 -50
-41 -105 -79 -241 -190 -325 -264 -239 -209 -227 -198 -399 -365 -87 -85 -310
-318 -359 -375 -22 -25 -114 -131 -141 -160 -58 -65 -196 -237 -311 -387 -43
-57 -85 -110 -92 -117 -7 -7 -13 -17 -13 -20 0 -4 -10 -18 -23 -32 -23 -26
-125 -171 -211 -300 -27 -41 -61 -93 -76 -115 -47 -69 -190 -305 -190 -313 0
-4 -11 -23 -23 -42 -54 -79 -166 -298 -228 -445 -52 -121 -54 -125 -89 -125
-16 0 -118 -18 -227 -40 -511 -102 -853 -120 -1283 -70 -300 34 -543 22 -695
-35 -37 -14 -70 -23 -73 -20 -6 6 35 68 90 136 24 30 91 117 149 194 58 77
126 167 151 200 55 73 278 372 298 401 8 12 35 50 59 85 25 35 48 66 53 67 4
2 8 8 8 12 0 5 35 62 78 127 121 182 262 410 335 543 16 30 38 66 47 80 10 14
65 120 123 236 173 347 236 559 237 796 0 174 -36 300 -126 436 -171 257 -529
361 -919 266 -332 -80 -741 -293 -1186 -616 -185 -134 -250 -187 -443 -358
-89 -78 -388 -383 -456 -464 -36 -43 -75 -90 -88 -104 -13 -15 -44 -54 -70
-87 -25 -33 -49 -62 -52 -65 -15 -12 -182 -244 -252 -350 -135 -205 -256 -428
-303 -555 -14 -38 -30 -79 -34 -90 -10 -21 -37 -105 -70 -215 -10 -36 -34
-130 -53 -210 -31 -135 -33 -157 -32 -315 0 -95 8 -232 17 -310 10 -77 19
-157 21 -178 5 -42 30 -77 55 -77 30 1 47 25 73 105 33 102 86 231 149 364 27
57 67 153 89 215 23 61 48 125 56 143 7 17 14 34 14 37 0 15 202 428 278 566
134 247 325 513 587 820 54 63 408 415 475 471 183 155 314 255 482 368 99 65
267 171 272 171 2 0 41 22 87 48 77 45 143 76 304 146 208 89 433 108 540 44
78 -45 111 -167 86 -314 -25 -146 -166 -473 -305 -709 -25 -42 -46 -79 -46
-81 0 -11 -325 -529 -357 -569 -4 -6 -30 -44 -58 -85 -27 -41 -52 -77 -55 -80
-3 -3 -23 -30 -45 -60 -56 -78 -440 -591 -505 -675 -47 -60 -165 -214 -365
-476 -27 -36 -77 -102 -110 -145 -33 -44 -62 -81 -65 -84 -5 -4 -23 -29 -120
-160 -10 -14 -40 -54 -66 -90 -27 -36 -51 -67 -54 -70 -3 -3 -17 -21 -30 -40
-14 -19 -30 -42 -37 -50 -6 -8 -46 -62 -89 -120 -42 -58 -80 -107 -83 -110 -3
-3 -22 -27 -40 -55 -19 -27 -37 -52 -41 -55 -3 -3 -38 -50 -79 -105 -41 -55
-77 -102 -80 -105 -3 -3 -22 -27 -40 -55 -19 -27 -37 -52 -41 -55 -3 -3 -38
-50 -79 -105 -41 -55 -77 -102 -80 -105 -3 -3 -22 -27 -40 -55 -19 -27 -37
-52 -41 -55 -3 -3 -38 -50 -79 -105 -41 -55 -77 -102 -80 -105 -3 -3 -22 -27
-40 -55 -19 -27 -37 -52 -40 -55 -4 -3 -22 -25 -41 -50 -19 -25 -40 -52 -47
-60 -7 -8 -57 -74 -110 -146 -54 -73 -109 -146 -122 -163 -14 -18 -74 -98
-133 -179 -60 -81 -114 -154 -121 -162 -7 -8 -23 -31 -37 -50 -13 -19 -28 -39
-33 -45 -10 -13 -95 -131 -225 -313 -56 -78 -102 -145 -102 -147 0 -3 -8 -18
-19 -33 -19 -27 -131 -219 -204 -347 -22 -38 -48 -82 -58 -97 -11 -15 -19 -29
-19 -32 0 -3 -15 -31 -34 -63 -18 -32 -38 -74 -45 -93 -13 -43 -41 -248 -41
-308 l0 -44 32 7 c18 4 60 23 93 42 33 19 80 43 105 55 71 33 112 70 227 206
59 70 110 129 113 132 3 3 30 34 60 70 30 36 67 79 82 95 15 17 57 68 93 115
36 47 73 93 81 103 8 9 14 20 14 22 0 3 28 44 63 90 34 46 85 116 112 154 28
39 53 71 58 71 4 0 7 5 7 11 0 9 472 643 635 854 65 83 79 102 197 260 62 83
116 155 120 160 4 6 58 78 120 160 61 83 114 152 117 155 3 3 22 28 41 55 19
28 40 57 47 65 6 8 42 56 79 105 37 50 70 92 73 95 4 3 19 25 36 48 32 48 101
112 121 112 7 0 14 3 16 8 6 14 287 192 303 192 9 0 250 168 302 210 7 6 15
10 18 10 3 0 22 10 43 23 58 37 182 85 279 109 113 28 308 29 513 4 383 -47
801 -28 1273 57 76 14 84 12 77 -18 -35 -164 -68 -359 -91 -535 -5 -41 -14
-96 -21 -121 -6 -25 -8 -57 -5 -71 14 -53 76 -46 103 10 9 21 45 76 80 124 35
48 64 90 64 94 0 3 21 36 48 73 120 166 189 283 305 510 68 135 129 247 135
249 7 2 12 -6 12 -20 0 -37 52 -129 91 -160 73 -59 196 -54 305 13 35 21 67
39 69 39 3 0 24 12 47 26 40 25 42 26 121 14 104 -15 213 -15 537 2 409 20
544 17 665 -15 159 -43 225 -80 509 -286 173 -126 343 -210 496 -247 96 -23
144 -28 290 -32 177 -4 246 1 585 48 77 10 226 30 330 44 105 15 291 35 415
46 390 35 948 89 975 95 11 2 135 16 275 30 224 23 275 31 419 71 90 24 184
56 208 71 44 26 96 85 109 125 20 63 -45 151 -137 186 -30 11 -129 30 -221 42
l-167 22 -393 -41 c-216 -23 -438 -46 -493 -51 -55 -6 -140 -15 -190 -20 -49
-5 -142 -14 -205 -20 -63 -6 -191 -17 -285 -26 -194 -17 -487 -53 -720 -89
-356 -53 -573 -58 -710 -15 -91 28 -198 87 -310 170 -160 118 -229 165 -290
200 -33 18 -67 39 -75 45 -8 7 -49 25 -90 40 -41 16 -79 32 -85 35 -42 28
-340 80 -460 80 -36 0 -65 4 -65 10 0 5 28 24 63 41 34 17 87 46 117 64 30 18
116 68 190 110 74 43 204 122 288 174 84 53 161 101 171 106 42 24 226 151
229 158 2 4 8 7 13 7 6 0 27 13 47 28 20 16 89 67 152 113 63 46 122 89 130
96 8 7 44 35 80 63 75 59 76 60 150 120 30 25 76 63 101 85 25 22 74 65 109
95 168 144 450 419 590 576 263 293 417 567 461 814 16 91 15 251 -1 322 -78
344 -343 569 -718 607 -56 6 -106 10 -110 9 -4 0 -50 -4 -102 -9z m247 -504
c125 -37 194 -120 201 -243 6 -86 -11 -158 -62 -267 -82 -173 -222 -351 -476
-605 -168 -167 -411 -386 -554 -500 -10 -8 -26 -22 -35 -31 -9 -9 -72 -58
-141 -110 -69 -52 -131 -100 -139 -107 -7 -7 -26 -21 -40 -30 -14 -9 -30 -20
-36 -24 -77 -58 -125 -91 -237 -166 -226 -151 -292 -192 -304 -192 -7 0 -14
-4 -16 -8 -3 -8 -119 -82 -148 -95 -8 -4 -24 -13 -35 -19 -104 -67 -95 -62
-665 -372 -47 -26 -173 -91 -280 -145 -431 -217 -478 -241 -555 -285 -44 -25
-85 -46 -92 -46 -12 0 70 165 139 278 21 34 38 64 38 67 0 13 236 386 313 494
63 88 305 414 338 455 281 346 516 603 815 886 90 85 125 117 224 200 29 25
58 50 64 55 45 40 198 164 281 225 55 41 105 78 110 82 135 104 381 257 564
350 155 78 289 128 411 153 92 18 255 18 317 0z"/>
</g>
</svg>
